0
SECTION
2
HEADER
9
$INSUNITS
70
4
9
$ACADVER
1
AC1014
9
$HANDSEED
5
FFFF
0
ENDSEC
0
SECTION
2
TABLES
0
TABLE
2
VPORT
5
8
100
AcDbSymbolTable
0
ENDTAB
0
TABLE
2
LTYPE
5
5
100
AcDbSymbolTable
0
LTYPE
5
14
100
AcDbSymbolTableRecord
100
AcDbLinetypeTableRecord
2
BYBLOCK
70
0
0
LTYPE
5
15
100
AcDbSymbolTableRecord
100
AcDbLinetypeTableRecord
2
BYLAYER
70
0
0
ENDTAB
0
TABLE
2
LAYER
5
2
100
AcDbSymbolTable
70
2
0
LAYER
5
50
100
AcDbSymbolTableRecord
100
AcDbLayerTableRecord
2
0
70
0
6
CONTINUOUS
0
ENDTAB
0
TABLE
2
STYLE
5
3
100
AcDbSymbolTable
70
1
0
STYLE
5
11
100
AcDbSymbolTableRecord
100
AcDbTextStyleTableRecord
2
STANDARD
70
0
0
ENDTAB
0
TABLE
2
VIEW
5
6
100
AcDbSymbolTable
70
0
0
ENDTAB
0
TABLE
2
UCS
5
7
100
AcDbSymbolTable
70
0
0
ENDTAB
0
TABLE
2
APPID
5
9
100
AcDbSymbolTable
70
2
0
APPID
5
12
100
AcDbSymbolTableRecord
100
AcDbRegAppTableRecord
2
ACAD
70
0
0
ENDTAB
0
TABLE
2
DIMSTYLE
5
A
100
AcDbSymbolTable
70
1
0
ENDTAB
0
TABLE
2
BLOCK_RECORD
5
1
100
AcDbSymbolTable
70
1
0
BLOCK_RECORD
5
1F
100
AcDbSymbolTableRecord
100
AcDbBlockTableRecord
2
*MODEL_SPACE
0
BLOCK_RECORD
5
1B
100
AcDbSymbolTableRecord
100
AcDbBlockTableRecord
2
*PAPER_SPACE
0
ENDTAB
0
ENDSEC
0
SECTION
2
BLOCKS
0
BLOCK
5
20
100
AcDbEntity
100
AcDbBlockBegin
2
*MODEL_SPACE
0
ENDBLK
5
21
100
AcDbEntity
100
AcDbBlockEnd
0
BLOCK
5
1C
100
AcDbEntity
100
AcDbBlockBegin
2
*PAPER_SPACE
0
ENDBLK
5
1D
100
AcDbEntity
100
AcDbBlockEnd
0
ENDSEC
0
SECTION
2
ENTITIES
0
LWPOLYLINE
5
100
100
AcDbEntity
8
0
100
AcDbPolyline
90
8
70
1
43
0.0
10
337.60000000000002
20
-120.60000000000004
42
-0.41421356237310025
10
336.60000000000002
20
-119.60000000000001
10
336.60000000000002
20
-107.59999999999999
42
-0.41421356237313667
10
337.60000000000002
20
-106.59999999999999
10
350.20000000000016
20
-106.60000000000004
42
-0.41421356237312101
10
351.20000000000016
20
-107.59999999999999
10
351.2000000000001
20
-119.60000000000001
42
-0.4142135623730222
10
350.20000000000016
20
-120.60000000000001
0
LWPOLYLINE
5
101
100
AcDbEntity
8
0
100
AcDbPolyline
90
8
70
1
43
0.0
10
98.474999999999994
20
-30.399999999999999
10
111.07500000000002
20
-30.399999999999999
42
-0.41421356237309631
10
112.07500000000002
20
-31.400000000000002
10
112.07499999999999
20
-43.399999999999991
42
-0.41421356237310281
10
111.07500000000002
20
-44.399999999999991
10
98.474999999999994
20
-44.399999999999991
42
-0.41421356237308204
10
97.475000000000023
20
-43.399999999999991
10
97.475000000000023
20
-31.400000000000002
42
-0.41421356237310414
0
LWPOLYLINE
5
102
100
AcDbEntity
8
0
100
AcDbPolyline
90
8
70
1
43
0.0
10
183.51249999999999
20
-69.5
10
183.51249999999999
20
-81.499999999999972
42
-0.41421356237307944
10
182.51249999999999
20
-82.5
10
169.91250000000002
20
-82.499999999999986
42
-0.41421356237309503
10
168.91249999999999
20
-81.499999999999972
10
168.91249999999999
20
-69.5
42
-0.41421356237309503
10
169.91250000000002
20
-68.499999999999986
10
182.51249999999999
20
-68.499999999999972
42
-0.41421356237309764
0
LWPOLYLINE
5
103
100
AcDbEntity
8
0
100
AcDbPolyline
90
8
70
1
43
0.0
10
296.30000000000001
20
-25.962500000000013
42
0.41421356237310281
10
296.80000000000013
20
-26.462500000000013
10
305.80000000000013
20
-26.462499999999999
42
0.41421356237312362
10
306.30000000000013
20
-25.962500000000013
10
306.30000000000007
20
-20.962500000000013
42
0.41421356237299356
10
305.80000000000013
20
-20.462499999999988
10
296.80000000000013
20
-20.462500000000045
42
0.41421356237309243
10
296.30000000000001
20
-20.962500000000013
0
LWPOLYLINE
5
104
100
AcDbEntity
8
0
100
AcDbPolyline
90
8
70
1
43
0.0
10
116.52500000000003
20
-43.399999999999991
42
0.41421356237310281
10
117.52500000000001
20
-44.399999999999991
10
130.12500000000003
20
-44.400000000000013
42
0.41421356237308721
10
131.125
20
-43.399999999999991
10
131.125
20
-31.400000000000002
42
0.41421356237308593
10
130.125
20
-30.39999999999997
10
117.52500000000001
20
-30.399999999999999
42
0.41421356237309631
10
116.52500000000002
20
-31.400000000000002
0
LWPOLYLINE
5
105
100
AcDbEntity
8
0
100
AcDbPolyline
90
8
70
1
43
0.0
10
312.10000000000014
20
-16.524999999999977
42
0.41421356237310736
10
313.10000000000014
20
-15.524999999999991
10
313.10000000000008
20
-3.5250000000000004
42
0.4142135623730796
10
312.10000000000014
20
-2.5250000000000834
10
299.50000000000011
20
-2.5249999999999719
42
0.41421356237308887
10
298.50000000000017
20
-3.5250000000000004
10
298.50000000000017
20
-15.524999999999991
42
0.41421356237309437
10
299.50000000000011
20
-16.525000000000009
0
LWPOLYLINE
5
106
100
AcDbEntity
8
0
100
AcDbPolyline
90
8
70
1
43
0.0
10
46.087499999999999
20
-101.55000000000001
10
58.687500000000021
20
-101.55000000000001
42
0.41421356237311585
10
59.6875
20
-100.55
10
59.687500000000028
20
-88.550000000000011
42
0.41421356237311324
10
58.687500000000021
20
-87.549999999999983
10
46.087499999999999
20
-87.550000000000011
42
0.41421356237310542
10
45.08750000000002
20
-88.550000000000026
10
45.087500000000006
20
-100.55
42
0.41421356237311846
0
LWPOLYLINE
5
107
100
AcDbEntity
8
0
100
AcDbPolyline
90
8
70
1
43
0.0
10
226.375
20
-3.5250000000000004
42
0.41421356237305457
10
225.37500000000009
20
-2.5250000000000834
10
212.77500000000003
20
-2.5250000000000168
42
0.41421356237310691
10
211.77500000000003
20
-3.5250000000000004
10
211.77500000000003
20
-15.525000000000002
42
0.4142135623730937
10
212.77500000000003
20
-16.525000000000009
10
225.37500000000009
20
-16.524999999999977
42
0.41421356237310736
10
226.37500000000011
20
-15.524999999999991
0
LWPOLYLINE
5
108
100
AcDbEntity
8
0
100
AcDbPolyline
90
8
70
1
43
0.0
10
87.262500000000003
20
-82.5
42
0.41421356237310025
10
88.262499999999989
20
-81.499999999999972
10
88.262500000000017
20
-69.5
42
0.41421356237310542
10
87.262500000000003
20
-68.499999999999972
10
74.662499999999994
20
-68.499999999999986
42
0.41421356237311324
10
73.66249999999998
20
-69.5
10
73.662499999999994
20
-81.499999999999986
42
0.41421356237310802
10
74.662499999999994
20
-82.5
0
LWPOLYLINE
5
109
100
AcDbEntity
8
0
100
AcDbPolyline
90
8
70
1
43
0.0
10
318.55000000000013
20
-16.525000000000013
42
-0.41421356237308721
10
317.55000000000018
20
-15.524999999999991
10
317.55000000000018
20
-3.5249999999999981
42
-0.41421356237310186
10
318.55000000000013
20
-2.524999999999999
10
331.15000000000003
20
-2.525000000000015
42
-0.41421356237310675
10
332.15000000000009
20
-3.5249999999999981
10
332.15000000000009
20
-15.524999999999991
42
-0.41421356237310414
10
331.15000000000003
20
-16.524999999999999
0
LWPOLYLINE
5
110
100
AcDbEntity
8
0
100
AcDbPolyline
90
8
70
1
43
0.0
10
173.67500000000004
20
-31.400000000000002
10
173.67500000000001
20
-43.399999999999991
42
0.41421356237310281
10
174.67500000000001
20
-44.400000000000013
10
187.27500000000003
20
-44.400000000000013
42
0.41421356237308721
10
188.27500000000001
20
-43.399999999999991
10
188.27499999999998
20
-31.400000000000002
42
0.41421356237309631
10
187.27500000000003
20
-30.39999999999997
10
174.67500000000001
20
-30.399999999999995
42
0.41421356237312362
0
LWPOLYLINE
5
111
100
AcDbEntity
8
0
100
AcDbPolyline
90
8
70
1
43
0.0
10
121.28749999999999
20
-100.55
10
121.28749999999999
20
-88.550000000000026
42
-0.4142135623730846
10
122.28749999999999
20
-87.549999999999983
10
134.88749999999999
20
-87.549999999999983
42
-0.41421356237312623
10
135.88749999999999
20
-88.550000000000026
10
135.88749999999999
20
-100.55
42
-0.41421356237313145
10
134.88749999999999
20
-101.55000000000001
10
122.28749999999999
20
-101.55000000000001
42
-0.41421356237310025
0
LWPOLYLINE
5
112
100
AcDbEntity
8
0
100
AcDbPolyline
90
8
70
1
43
0.0
10
351.19999999999993
20
-88.549999999999983
10
351.20000000000016
20
-100.55
42
-0.41421356237312623
10
350.20000000000016
20
-101.55000000000001
10
337.60000000000002
20
-101.54999999999986
42
-0.41421356237308982
10
336.60000000000002
20
-100.55
10
336.60000000000002
20
-88.549999999999983
42
-0.41421356237313667
10
337.60000000000002
20
-87.549999999999983
10
350.20000000000016
20
-87.549999999999983
42
-0.41421356237313145
0
LWPOLYLINE
5
113
100
AcDbEntity
8
0
100
AcDbPolyline
90
8
70
1
43
0.0
10
169.22499999999999
20
-43.399999999999991
10
169.22499999999999
20
-31.400000000000002
42
0.41421356237309243
10
168.22499999999991
20
-30.400000000000009
10
155.625
20
-30.399999999999999
42
0.41421356237309631
10
154.625
20
-31.400000000000002
10
154.62500000000003
20
-43.399999999999991
42
0.41421356237310281
10
155.625
20
-44.399999999999991
10
168.22500000000002
20
-44.400000000000006
42
0.4142135623730846
0
LWPOLYLINE
5
114
100
AcDbEntity
8
0
100
AcDbPolyline
90
8
70
1
43
0.0
10
54.612499999999997
20
-69.5
42
-0.41421356237310802
10
55.612500000000004
20
-68.499999999999986
10
68.212500000000006
20
-68.499999999999972
42
-0.41421356237310281
10
69.212500000000006
20
-69.5
10
69.212500000000006
20
-81.499999999999986
42
-0.41421356237308982
10
68.212500000000006
20
-82.5
10
55.612500000000004
20
-82.5
42
-0.41421356237311846
10
54.612499999999997
20
-81.499999999999972
0
LWPOLYLINE
5
115
100
AcDbEntity
8
0
100
AcDbPolyline
90
8
70
1
43
0.0
10
164.46249999999989
20
-69.5
42
0.41421356237313145
10
163.46250000000001
20
-68.5
10
150.86250000000001
20
-68.499999999999986
42
0.41421356237310025
10
149.86250000000001
20
-69.5
10
149.86250000000001
20
-81.499999999999972
42
0.4142135623730846
10
150.86250000000001
20
-82.5
10
163.46249999999998
20
-82.5
42
0.41421356237312101
10
164.46249999999989
20
-81.499999999999972
0
LWPOLYLINE
5
116
100
AcDbEntity
8
0
100
AcDbPolyline
90
8
70
1
43
0.0
10
187.96250000000001
20
-69.5
42
-0.41421356237309503
10
188.96250000000003
20
-68.499999999999986
10
201.5625
20
-68.5
42
-0.41421356237313406
10
202.5625
20
-69.5
10
202.5625
20
-81.499999999999986
42
-0.41421356237310025
10
201.5625
20
-82.5
10
188.96250000000003
20
-82.500000000000014
42
-0.41421356237312623
10
187.96250000000001
20
-81.499999999999972
0
LWPOLYLINE
5
117
100
AcDbEntity
8
0
100
AcDbPolyline
90
12
70
1
43
0.0
10
369.95000000000016
20
-90.862536470271195
10
369.95000000000016
20
-117.28746352972883
42
-0.15262792242074721
10
369.77202621855236
20
-117.85691317281666
10
368.51641146711836
20
-119.66944964308782
42
-0.24603139829098472
10
367.69438524856616
20
-120.09999999999998
10
356.95000000000022
20
-120.0999999999998
42
-0.41421356237315748
10
355.94999999999999
20
-119.0999999999998
10
355.94999999999993
20
-89.050000000000125
42
-0.41421356237316265
10
356.95000000000005
20
-88.050000000000153
10
367.69438524856616
20
-88.049999999999983
42
-0.24603139829100415
10
368.51641146711836
20
-88.480550356912175
10
369.77202621855236
20
-90.293086827183345
42
-0.15262792242050874
0
LWPOLYLINE
5
118
100
AcDbEntity
8
0
100
AcDbPolyline
90
8
70
1
43
0.0
10
125.36250000000001
20
-82.5
10
112.76250000000002
20
-82.5
42
-0.41421356237312623
10
111.76250000000002
20
-81.499999999999972
10
111.76249999999999
20
-69.5
42
-0.41421356237312623
10
112.76250000000002
20
-68.499999999999986
10
125.36250000000001
20
-68.499999999999986
42
-0.41421356237310025
10
126.36250000000001
20
-69.5
10
126.36250000000001
20
-81.499999999999972
42
-0.4142135623730846
0
LWPOLYLINE
5
119
100
AcDbEntity
8
0
100
AcDbPolyline
90
8
70
1
43
0.0
10
196.80000000000004
20
-2.5249999999999693
42
-0.41421356237308887
10
197.80000000000001
20
-3.5249999999999981
10
197.80000000000001
20
-15.524999999999991
42
-0.41421356237310281
10
196.80000000000004
20
-16.524999999999991
10
184.19999999999999
20
-16.525000000000027
42
-0.41421356237308787
10
183.19999999999999
20
-15.525000000000002
10
183.19999999999999
20
-3.5250000000000004
42
-0.41421356237310186
10
184.19999999999999
20
-2.524999999999999
0
LWPOLYLINE
5
120
100
AcDbEntity
8
0
100
AcDbPolyline
90
8
70
1
43
0.0
10
44.400000000000013
20
-49.449999999999996
10
31.800000000000001
20
-49.450000000000003
42
0.41421356237309503
10
30.800000000000001
20
-50.45000000000001
10
30.800000000000001
20
-62.449999999999989
42
0.4142135623730937
10
31.799999999999994
20
-63.449999999999989
10
44.400000000000013
20
-63.449999999999996
42
0.41421356237310025
10
45.399999999999999
20
-62.449999999999989
10
45.40000000000002
20
-50.45000000000001
42
0.41421356237311324
0
LWPOLYLINE
5
121
100
AcDbEntity
8
0
100
AcDbPolyline
90
8
70
1
43
0.0
10
98.474999999999994
20
-2.524999999999999
10
111.07500000000002
20
-2.525000000000003
42
-0.41421356237309503
10
112.07500000000002
20
-3.5249999999999981
10
112.07500000000002
20
-15.524999999999991
42
-0.41421356237309825
10
111.07500000000002
20
-16.524999999999999
10
98.474999999999994
20
-16.524999999999995
42
-0.41421356237307877
10
97.475000000000023
20
-15.525000000000002
10
97.475000000000023
20
-3.5249999999999981
42
-0.41421356237310969
0
LWPOLYLINE
5
122
100
AcDbEntity
8
0
100
AcDbPolyline
90
8
70
1
43
0.0
10
332.15000000000009
20
-88.550000000000026
10
332.15000000000003
20
-100.55
42
-0.4142135623730846
10
331.15000000000003
20
-101.55000000000001
10
318.55000000000007
20
-101.55000000000003
42
-0.41421356237310025
10
317.55000000000001
20
-100.55
10
317.55000000000001
20
-88.550000000000026
42
-0.41421356237307944
10
318.55000000000007
20
-87.549999999999983
10
331.15000000000003
20
-87.549999999999983
42
-0.41421356237307944
0
LWPOLYLINE
5
123
100
AcDbEntity
8
0
100
AcDbPolyline
90
8
70
1
43
0.0
10
136.57499999999999
20
-30.399999999999999
42
0.41421356237310675
10
135.57499999999999
20
-31.400000000000002
10
135.57499999999999
20
-43.399999999999991
42
0.41421356237312101
10
136.57499999999999
20
-44.400000000000013
10
149.17500000000004
20
-44.400000000000013
42
0.41421356237308721
10
150.17500000000001
20
-43.399999999999991
10
150.17500000000001
20
-31.400000000000002
42
0.41421356237310542
10
149.1749999999999
20
-30.399999999999991
0
LWPOLYLINE
5
124
100
AcDbEntity
8
0
100
AcDbPolyline
90
8
70
1
43
0.0
10
64.137500000000017
20
-88.550000000000026
10
64.137500000000017
20
-100.55
42
0.41421356237308982
10
65.137500000000003
20
-101.55000000000001
10
77.73750000000004
20
-101.55000000000001
42
0.41421356237310802
10
78.737500000000026
20
-100.55
10
78.737500000000026
20
-88.550000000000026
42
0.41421356237309503
10
77.73750000000004
20
-87.549999999999983
10
65.137500000000003
20
-87.549999999999983
42
0.41421356237310542
0
LWPOLYLINE
5
125
100
AcDbEntity
8
0
100
AcDbPolyline
90
8
70
1
43
0.0
10
49.162500000000009
20
-82.5
10
36.5625
20
-82.5
42
-0.41421356237310802
10
35.5625
20
-81.499999999999986
10
35.562500000000007
20
-69.500000000000014
42
-0.41421356237309892
10
36.5625
20
-68.499999999999986
10
49.162500000000016
20
-68.499999999999972
42
-0.41421356237310281
10
50.162500000000009
20
-69.5
10
50.162500000000009
20
-81.499999999999986
42
-0.41421356237309243
0
LWPOLYLINE
5
126
100
AcDbEntity
8
0
100
AcDbPolyline
90
8
70
1
43
0.0
10
53.924999999999997
20
-44.399999999999991
10
41.324999999999996
20
-44.399999999999984
42
-0.41421356237308982
10
40.324999999999982
20
-43.399999999999991
10
40.324999999999982
20
-31.400000000000002
42
-0.41421356237309631
10
41.324999999999996
20
-30.399999999999999
10
53.924999999999983
20
-30.399999999999991
42
-0.41421356237310153
10
54.924999999999997
20
-31.400000000000002
10
54.924999999999997
20
-43.399999999999991
42
-0.41421356237310802
0
LWPOLYLINE
5
127
100
AcDbEntity
8
0
100
AcDbPolyline
90
8
70
1
43
0.0
10
107.31250000000003
20
-69.5
42
0.41421356237311324
10
106.31250000000001
20
-68.499999999999957
10
93.71250000000002
20
-68.499999999999986
42
0.41421356237310542
10
92.712500000000006
20
-69.5
10
92.71250000000002
20
-81.499999999999972
42
0.41421356237310542
10
93.71250000000002
20
-82.5
10
106.31250000000001
20
-82.5
42
0.41421356237312623
10
107.31250000000001
20
-81.499999999999972
0
LWPOLYLINE
5
128
100
AcDbEntity
8
0
100
AcDbPolyline
90
8
70
1
43
0.0
10
63.450000000000003
20
-63.449999999999989
42
0.41421356237310281
10
64.449999999999989
20
-62.449999999999989
10
64.450000000000017
20
-50.449999999999989
42
0.41421356237310281
10
63.450000000000003
20
-49.449999999999996
10
50.850000000000009
20
-49.449999999999996
42
0.41421356237310281
10
49.850000000000001
20
-50.45000000000001
10
49.850000000000001
20
-62.449999999999989
42
0.41421356237309764
10
50.850000000000009
20
-63.449999999999989
0
LWPOLYLINE
5
129
100
AcDbEntity
8
0
100
AcDbPolyline
90
8
70
1
43
0.0
10
53.924999999999997
20
-16.524999999999991
10
41.325000000000003
20
-16.524999999999995
42
-0.41421356237309698
10
40.325000000000003
20
-15.524999999999991
10
40.324999999999974
20
-3.5249999999999981
42
-0.4142135623731022
10
41.325000000000003
20
-2.524999999999999
10
53.924999999999997
20
-2.5249999999999977
42
-0.41421356237309653
10
54.924999999999997
20
-3.5249999999999981
10
54.924999999999997
20
-15.524999999999991
42
-0.41421356237309698
0
LWPOLYLINE
5
130
100
AcDbEntity
8
0
100
AcDbPolyline
90
8
70
1
43
0.0
10
140.33750000000001
20
-100.55
10
140.33750000000001
20
-88.550000000000026
42
-0.4142135623730846
10
141.33750000000001
20
-87.549999999999983
10
153.9375
20
-87.549999999999983
42
-0.41421356237312623
10
154.9375
20
-88.550000000000026
10
154.9375
20
-100.55
42
-0.41421356237313145
10
153.9375
20
-101.55000000000001
10
141.33749999999989
20
-101.55000000000001
42
-0.41421356237307944
0
LWPOLYLINE
5
131
100
AcDbEntity
8
0
100
AcDbPolyline
90
45
70
1
43
0.0
10
358.42500000000001
20
-129.86250000000001
10
356.42499999999984
20
-129.86250000000001
10
354.92500000000001
20
-129.86250000000001
10
354.92500000000001
20
-125.8625
10
349.92499999999984
20
-125.8625
10
349.92499999999984
20
-129.86250000000001
10
348.42499999999984
20
-129.86250000000001
10
346.42499999999984
20
-129.86250000000001
10
346.42499999999984
20
-127.86250000000001
10
344.4249999999999
20
-127.86250000000001
10
344.42499999999961
20
-129.86250000000001
10
30.62187500000001
20
-129.86250000000001
10
30.62187500000001
20
-127.86250000000001
10
28.62187500000001
20
-127.86250000000001
10
28.62187500000001
20
-129.86250000000001
10
26.621874999999996
20
-129.86250000000001
10
25.121874999999992
20
-129.86250000000001
10
25.121874999999992
20
-125.8625
10
20.121874999999992
20
-125.8625
10
20.121874999999992
20
-129.86250000000001
10
18.621874999999989
20
-129.86250000000001
10
16.621874999999992
20
-129.86250000000001
10
16.621874999999992
20
-127.86250000000001
10
14.62187499999999
20
-127.86250000000001
10
14.62187499999999
20
-129.86250000000001
10
-1.2749999999999992
20
-129.86250000000001
42
-0.41421356237309342
10
-1.774999999999999
20
-129.36250000000001
10
-1.774999999999999
20
-25.962499999999995
10
-0.47305090073963607
20
-25.962499999999995
10
2.7250000000000001
20
-25.962499999999995
10
2.7250000000000005
20
-20.962499999999991
10
-1.774999999999999
20
-20.962499999999991
10
-1.774999999999999
20
4.674999999999998
42
-0.41421356237309859
10
-1.2749999999999773
20
5.1749999999999998
10
373.25
20
5.1750000000000291
42
-0.41421356237304657
10
373.75000000000011
20
4.674999999999998
10
373.75
20
-20.962499999999999
10
369.25
20
-20.962499999999999
10
369.25
20
-25.962499999999999
10
373.75
20
-25.962499999999995
10
373.75000000000006
20
-129.36250000000001
42
-0.4142135623730846
10
373.25
20
-129.86250000000001
10
360.42500000000007
20
-129.86250000000001
10
360.42500000000007
20
-127.86250000000001
10
358.42500000000001
20
-127.86250000000001
0
LWPOLYLINE
5
132
100
AcDbEntity
8
0
100
AcDbPolyline
90
8
70
1
43
0.0
10
178.4375
20
-88.550000000000026
42
-0.41421356237307944
10
179.4375
20
-87.549999999999983
10
192.03749999999999
20
-87.549999999999983
42
-0.41421356237312101
10
193.03750000000002
20
-88.550000000000026
10
193.03750000000002
20
-100.55
42
-0.41421356237310025
10
192.03749999999999
20
-101.55000000000001
10
179.4375
20
-101.55000000000003
42
-0.41421356237312101
10
178.4375
20
-100.55
0
LWPOLYLINE
5
133
100
AcDbEntity
8
0
100
AcDbPolyline
90
8
70
1
43
0.0
10
299.5
20
-30.399999999999991
10
312.10000000000014
20
-30.400000000000027
42
-0.41421356237310153
10
313.10000000000014
20
-31.399999999999991
10
313.10000000000002
20
-43.399999999999991
42
-0.41421356237310542
10
312.10000000000014
20
-44.399999999999984
10
299.5
20
-44.400000000000006
42
-0.41421356237309503
10
298.5
20
-43.399999999999991
10
298.50000000000017
20
-31.399999999999991
42
-0.41421356237307294
0
LWPOLYLINE
5
134
100
AcDbEntity
8
0
100
AcDbPolyline
90
8
70
1
43
0.0
10
331.60000000000019
20
-20.462500000000034
10
322.60000000000002
20
-20.46249999999997
42
0.41421356237309503
10
322.10000000000014
20
-20.962500000000013
10
322.10000000000014
20
-25.962500000000013
42
0.414213562373069
10
322.60000000000002
20
-26.462499999999984
10
331.60000000000019
20
-26.462500000000013
42
0.4142135623731939
10
332.10000000000014
20
-25.962500000000013
10
332.10000000000025
20
-20.962500000000013
42
0.41421356237323809
0
LWPOLYLINE
5
135
100
AcDbEntity
8
0
100
AcDbPolyline
90
8
70
1
43
0.0
10
108
20
-49.45000000000001
42
0.41421356237309503
10
107.00000000000001
20
-50.45000000000001
10
107
20
-62.449999999999989
42
0.41421356237312362
10
108
20
-63.450000000000024
10
120.60000000000001
20
-63.450000000000003
42
0.41421356237308982
10
121.59999999999999
20
-62.449999999999989
10
121.59999999999999
20
-50.45000000000001
42
0.41421356237309243
10
120.60000000000001
20
-49.449999999999996
0
LWPOLYLINE
5
136
100
AcDbEntity
8
0
100
AcDbPolyline
90
8
70
1
43
0.0
10
78.425000000000026
20
-43.399999999999991
42
0.41421356237309243
10
79.424999999999983
20
-44.399999999999984
10
92.025000000000006
20
-44.400000000000013
42
0.41421356237309243
10
93.025000000000006
20
-43.399999999999991
10
93.02500000000002
20
-31.400000000000002
42
0.41421356237313273
10
92.025000000000006
20
-30.400000000000009
10
79.425000000000026
20
-30.400000000000006
42
0.41421356237310281
10
78.424999999999983
20
-31.400000000000002
0
LWPOLYLINE
5
137
100
AcDbEntity
8
0
100
AcDbPolyline
90
8
70
1
43
0.0
10
140.65000000000001
20
-62.449999999999989
42
-0.41421356237308982
10
139.65000000000001
20
-63.450000000000003
10
127.05
20
-63.449999999999989
42
-0.41421356237309503
10
126.05000000000001
20
-62.449999999999989
10
126.05000000000001
20
-50.45000000000001
42
-0.41421356237309243
10
127.05
20
-49.449999999999996
10
139.65000000000001
20
-49.450000000000003
42
-0.41421356237310281
10
140.65000000000001
20
-50.449999999999989
0
LWPOLYLINE
5
138
100
AcDbEntity
8
0
100
AcDbPolyline
90
8
70
1
43
0.0
10
127.05
20
-16.524999999999995
42
-0.41421356237309437
10
126.05000000000001
20
-15.525000000000002
10
126.05000000000001
20
-3.5250000000000004
42
-0.41421356237309492
10
127.05
20
-2.524999999999999
10
139.65000000000001
20
-2.5250000000000017
42
-0.41421356237309537
10
140.65000000000001
20
-3.5249999999999981
10
140.65000000000001
20
-15.524999999999991
42
-0.4142135623730957
10
139.65000000000001
20
-16.524999999999991
0
LWPOLYLINE
5
139
100
AcDbEntity
8
0
100
AcDbPolyline
90
8
70
1
43
0.0
10
337.60000000000002
20
-68.499999999999972
42
0.41421356237309764
10
336.60000000000002
20
-69.5
10
336.60000000000014
20
-81.5
42
0.41421356237316265
10
337.60000000000002
20
-82.499999999999929
10
350.20000000000016
20
-82.499999999999972
42
0.41421356237312101
10
351.20000000000016
20
-81.5
10
351.19999999999993
20
-69.5
42
0.414213562373069
10
350.20000000000016
20
-68.500000000000057
0
LWPOLYLINE
5
140
100
AcDbEntity
8
0
100
AcDbPolyline
90
8
70
1
43
0.0
10
102.55000000000001
20
-50.45000000000001
42
0.41421356237311585
10
101.55000000000001
20
-49.449999999999974
10
88.94999999999996
20
-49.449999999999996
42
0.41421356237307944
10
87.949999999999989
20
-50.449999999999989
10
87.949999999999989
20
-62.449999999999989
42
0.41421356237311324
10
88.950000000000017
20
-63.449999999999989
10
101.55000000000001
20
-63.449999999999989
42
0.41421356237309503
10
102.55000000000001
20
-62.449999999999989
0
LWPOLYLINE
5
141
100
AcDbEntity
8
0
100
AcDbPolyline
90
8
70
1
43
0.0
10
69.900000000000006
20
-63.450000000000003
10
82.5
20
-63.450000000000017
42
0.41421356237309243
10
83.5
20
-62.449999999999989
10
83.500000000000014
20
-50.449999999999989
42
0.41421356237309764
10
82.5
20
-49.449999999999996
10
69.900000000000006
20
-49.449999999999996
42
0.41421356237310542
10
68.899999999999991
20
-50.449999999999989
10
68.900000000000006
20
-62.449999999999989
42
0.41421356237308721
0
LWPOLYLINE
5
142
100
AcDbEntity
8
0
100
AcDbPolyline
90
8
70
1
43
0.0
10
97.787500000000023
20
-88.550000000000026
10
97.787500000000023
20
-100.55
42
-0.41421356237307944
10
96.787500000000023
20
-101.55000000000001
10
84.187500000000014
20
-101.55000000000001
42
-0.41421356237310025
10
83.187500000000014
20
-100.55
10
83.187500000000014
20
-88.550000000000026
42
-0.4142135623730846
10
84.187500000000014
20
-87.549999999999983
10
96.787500000000023
20
-87.549999999999969
42
-0.41421356237312101
0
LWPOLYLINE
5
143
100
AcDbEntity
8
0
100
AcDbPolyline
90
8
70
1
43
0.0
10
115.83750000000002
20
-87.549999999999983
42
-0.41421356237312623
10
116.83750000000002
20
-88.550000000000026
10
116.83750000000001
20
-100.55
42
-0.41421356237310542
10
115.83750000000002
20
-101.55000000000001
10
103.23750000000001
20
-101.55000000000001
42
-0.41421356237308982
10
102.23750000000001
20
-100.55
10
102.23750000000001
20
-88.550000000000026
42
-0.41421356237312623
10
103.23750000000001
20
-87.549999999999983
0
LWPOLYLINE
5
144
100
AcDbEntity
8
0
100
AcDbPolyline
90
8
70
1
43
0.0
10
177.74999999999991
20
-2.5249999999999768
10
165.15000000000001
20
-2.5250000000000004
42
0.41421356237312168
10
164.15000000000003
20
-3.5249999999999981
10
164.15000000000003
20
-15.524999999999991
42
0.41421356237311452
10
165.15000000000001
20
-16.52499999999997
10
177.75000000000003
20
-16.525000000000027
42
0.41421356237308787
10
178.75
20
-15.525000000000002
10
178.75
20
-3.5250000000000004
42
0.41421356237307944
0
LWPOLYLINE
5
145
100
AcDbEntity
8
0
100
AcDbPolyline
90
8
70
1
43
0.0
10
130.8125
20
-81.499999999999986
42
0.41421356237309503
10
131.8125
20
-82.500000000000014
10
144.41249999999999
20
-82.5
42
0.41421356237312623
10
145.41249999999999
20
-81.499999999999972
10
145.41250000000002
20
-69.5
42
0.41421356237310542
10
144.41249999999991
20
-68.499999999999972
10
131.8125
20
-68.499999999999986
42
0.41421356237310025
10
130.8125
20
-69.5
0
CIRCLE
5
146
100
AcDbEntity
8
0
100
AcDbCircle
10
118.90000000000002
20
-9.5250000000000377
30
0
40
0.99999999999999967
210
0
220
0
230
1
0
CIRCLE
5
147
100
AcDbEntity
8
0
100
AcDbCircle
10
104.77500000000001
20
-56.449999999999996
30
0
40
0.99999999999999689
210
0
220
0
230
1
0
LWPOLYLINE
5
148
100
AcDbEntity
8
0
100
AcDbPolyline
90
12
70
1
43
0.0
10
5.40625
20
-99.294259067684123
10
5.4062500000000124
20
-88.55000000000004
42
-0.41421356237310997
10
6.4062500000000089
20
-87.550000000000026
10
36.456249999999976
20
-87.550000000000026
42
-0.4142135623730846
10
37.45624999999999
20
-88.55000000000004
10
37.456250000000011
20
-99.294385248566016
42
-0.24603139829098272
10
37.025699643087833
20
-100.11641146711818
10
35.21316317281665
20
-101.37202621855216
42
-0.15262792242069143
10
34.643713529728828
20
-101.55000000000001
10
8.2188090824421014
20
-101.55000000000001
42
-0.1526384623026939
10
7.6493255726015041
20
-101.37200275669834
10
5.8367664901594027
20
-100.11626182438243
42
-0.24602047492348778
0
LWPOLYLINE
5
149
100
AcDbEntity
8
0
100
AcDbPolyline
90
8
70
1
43
0.0
10
16.824999999999992
20
-31.400000000000002
10
16.824999999999989
20
-43.399999999999991
42
-0.4142135623730957
10
15.824999999999999
20
-44.399999999999991
10
3.2249999999999917
20
-44.399999999999991
42
-0.41421356237309326
10
2.2249999999999965
20
-43.399999999999991
10
2.2249999999999921
20
-31.400000000000002
42
-0.41421356237310042
10
3.2249999999999934
20
-30.399999999999999
10
15.824999999999999
20
-30.399999999999999
42
-0.41421356237309698
0
CIRCLE
5
150
100
AcDbEntity
8
0
100
AcDbCircle
10
76.200000000000017
20
-37.400000000000013
30
0
40
1.0000000000000011
210
0
220
0
230
1
0
LWPOLYLINE
5
151
100
AcDbEntity
8
0
100
AcDbPolyline
90
8
70
1
43
0.0
10
59.375
20
-31.400000000000002
42
-0.41421356237310025
10
60.375
20
-30.399999999999999
10
72.975000000000023
20
-30.399999999999988
42
-0.41421356237309503
10
73.975000000000023
20
-31.400000000000002
10
73.97499999999998
20
-43.399999999999991
42
-0.41421356237308982
10
72.975000000000023
20
-44.400000000000013
10
60.375
20
-44.400000000000013
42
-0.41421356237310281
10
59.375
20
-43.399999999999991
0
LWPOLYLINE
5
152
100
AcDbEntity
8
0
100
AcDbPolyline
90
8
70
1
43
0.0
10
332.15000000000009
20
-107.59999999999999
42
0.41421356237311063
10
331.15000000000003
20
-106.59999999999999
10
318.55000000000007
20
-106.59999999999999
42
0.41421356237308982
10
317.55000000000001
20
-107.59999999999999
10
317.54999999999995
20
-119.60000000000001
42
0.41421356237306384
10
318.55000000000007
20
-120.60000000000001
10
331.15000000000003
20
-120.59999999999997
42
0.41421356237310025
10
332.15000000000009
20
-119.60000000000001
0
CIRCLE
5
153
100
AcDbEntity
8
0
100
AcDbCircle
10
334.37500000000011
20
-94.549999999999997
30
0
40
0.99999999999999689
210
0
220
0
230
1
0
LWPOLYLINE
5
154
100
AcDbEntity
8
0
100
AcDbPolyline
90
8
70
1
43
0.0
10
158.69999999999999
20
-2.5250000000000119
10
146.09999999999999
20
-2.5249999999999928
42
0.41421356237309798
10
145.09999999999999
20
-3.5250000000000004
10
145.09999999999999
20
-15.525000000000002
42
0.41421356237310414
10
146.09999999999999
20
-16.524999999999991
10
158.69999999999999
20
-16.525000000000002
42
0.41421356237309959
10
159.69999999999999
20
-15.524999999999991
10
159.69999999999993
20
-3.5250000000000004
42
0.41421356237309537
0
LWPOLYLINE
5
155
100
AcDbEntity
8
0
100
AcDbPolyline
90
8
70
1
43
0.0
10
78.425000000000026
20
-15.525000000000002
42
0.41421356237309437
10
79.424999999999983
20
-16.524999999999991
10
92.025000000000006
20
-16.524999999999999
42
0.41421356237309825
10
93.025000000000006
20
-15.524999999999991
10
93.02500000000002
20
-3.5250000000000004
42
0.41421356237312529
10
92.025000000000006
20
-2.5249999999999946
10
79.424999999999983
20
-2.5249999999999915
42
0.41421356237309598
10
78.424999999999983
20
-3.5250000000000004
0
CIRCLE
5
156
100
AcDbEntity
8
0
100
AcDbCircle
10
369.95000000000016
20
-82.5
30
0
40
1.0000000000000271
210
0
220
0
230
1
0
LWPOLYLINE
5
157
100
AcDbEntity
8
0
100
AcDbPolyline
90
8
70
1
43
0.0
10
59.375
20
-15.525000000000002
10
59.375
20
-3.5250000000000004
42
-0.41421356237310381
10
60.375000000000007
20
-2.524999999999999
10
72.975000000000023
20
-2.5249999999999977
42
-0.4142135623730962
10
73.975000000000023
20
-3.5249999999999981
10
73.975000000000023
20
-15.524999999999991
42
-0.41421356237309698
10
72.975000000000023
20
-16.524999999999999
10
60.375000000000007
20
-16.525000000000002
42
-0.41421356237309309
0
LWPOLYLINE
5
158
100
AcDbEntity
8
0
100
AcDbPolyline
90
8
70
1
43
0.0
10
3.2249999999999979
20
-16.524999999999991
10
15.824999999999999
20
-16.524999999999991
42
0.41421356237309892
10
16.824999999999992
20
-15.524999999999991
10
16.825000000000003
20
-3.5249999999999955
42
0.41421356237310142
10
15.824999999999999
20
-2.5249999999999901
10
3.2249999999999974
20
-2.524999999999995
42
0.41421356237310042
10
2.2249999999999961
20
-3.5249999999999959
10
2.2250000000000019
20
-15.524999999999993
42
0.41421356237309814
0
CIRCLE
5
159
100
AcDbEntity
8
0
100
AcDbCircle
10
369.95000000000016
20
-120.60000000000001
30
0
40
1.0000000000000271
210
0
220
0
230
1
0
LWPOLYLINE
5
160
100
AcDbEntity
8
0
100
AcDbPolyline
90
8
70
1
43
0.0
10
7.9874999999999909
20
-49.450000000000003
42
0.41421356237310641
10
6.9874999999999954
20
-50.45000000000001
10
6.9874999999999936
20
-62.449999999999989
42
0.4142135623730957
10
7.9874999999999918
20
-63.450000000000003
10
20.587499999999991
20
-63.449999999999989
42
0.41421356237309892
10
21.587499999999981
20
-62.449999999999989
10
21.587499999999984
20
-50.45000000000001
42
0.41421356237310025
10
20.587499999999991
20
-49.449999999999996
0
LWPOLYLINE
5
161
100
AcDbEntity
8
0
100
AcDbPolyline
90
13
70
1
43
0.0
10
368.51641146711836
20
-81.569449643087836
10
369.77202621855236
20
-79.756913172816667
42
0.152627922420736
10
369.95000000000016
20
-79.187463529728831
10
369.95000000000016
20
-52.762536470271179
42
0.15262792242074721
10
369.77202621855236
20
-52.193086827183343
10
368.51641146711836
20
-50.380550356912167
42
0.24603139829098858
10
367.69438524856616
20
-49.950000000000003
10
356.94999999999993
20
-49.950000000000045
42
0.41421356237312101
10
355.94999999999993
20
-50.950000000000003
10
355.94999999999999
20
-80.99999999999973
42
0.41421356237313667
10
356.95000000000027
20
-81.999999999999744
10
356.44999999999987
20
-81.999999999999872
10
367.69438524856616
20
-82
42
0.24603139829098472
0
CIRCLE
5
162
100
AcDbEntity
8
0
100
AcDbCircle
10
28.225000000000001
20
-9.9250000000000007
30
0
40
1
210
0
220
0
230
1
0
CIRCLE
5
163
100
AcDbEntity
8
0
100
AcDbCircle
10
26.05749999999999
20
-56.450000000000003
30
0
40
0.99999999999999645
210
0
220
0
230
1
0
LWPOLYLINE
5
164
100
AcDbEntity
8
0
100
AcDbPolyline
90
8
70
1
43
0.0
10
35.875000000000007
20
-31.400000000000002
42
0.41421356237310153
10
34.875
20
-30.399999999999991
10
22.274999999999991
20
-30.399999999999999
42
0.41421356237310281
10
21.274999999999991
20
-31.400000000000002
10
21.274999999999995
20
-43.399999999999991
42
0.41421356237310281
10
22.274999999999991
20
-44.399999999999991
10
34.875
20
-44.399999999999991
42
0.41421356237309631
10
35.874999999999993
20
-43.399999999999991
0
LWPOLYLINE
5
165
100
AcDbEntity
8
0
100
AcDbPolyline
90
8
70
1
43
0.0
10
20.324999999999996
20
-25.062499999999993
10
20.324999999999996
20
-21.862499999999994
42
0.41421356237309176
10
19.325000000000003
20
-20.86249999999999
10
15.32499999999999
20
-20.86249999999999
42
0.41421356237309176
10
14.324999999999992
20
-21.86249999999999
10
14.32499999999999
20
-25.0625
42
0.41421356237308982
10
15.324999999999999
20
-26.0625
10
19.325000000000003
20
-26.0625
42
0.41421356237309437
0
CIRCLE
5
166
100
AcDbEntity
8
0
100
AcDbCircle
10
44.953125
20
-113.59999999999999
30
0
40
0.99999999999999689
210
0
220
0
230
1
0
LWPOLYLINE
5
167
100
AcDbEntity
8
0
100
AcDbPolyline
90
8
70
1
43
0.0
10
39.637500000000003
20
-120.59999999999999
42
0.41421356237309892
10
40.637500000000003
20
-119.60000000000001
10
40.637500000000003
20
-107.60000000000002
42
0.41421356237309764
10
39.637500000000003
20
-106.59999999999999
10
27.037500000000001
20
-106.59999999999999
42
0.4142135623730937
10
26.037500000000001
20
-107.59999999999999
10
26.037500000000001
20
-119.60000000000001
42
0.41421356237309631
10
27.037500000000001
20
-120.60000000000001
0
LWPOLYLINE
5
168
100
AcDbEntity
8
0
100
AcDbPolyline
90
8
70
1
43
0.0
10
18.206250000000001
20
-120.60000000000001
42
0.41421356237309698
10
19.206250000000004
20
-119.60000000000001
10
19.206250000000011
20
-107.59999999999999
42
0.41421356237309892
10
18.206250000000001
20
-106.59999999999999
10
5.6062499999999984
20
-106.59999999999999
42
0.41421356237309764
10
4.6062499999999931
20
-107.59999999999999
10
4.6062499999999975
20
-119.60000000000001
42
0.41421356237309664
10
5.6062499999999993
20
-120.60000000000001
0
LWPOLYLINE
5
169
100
AcDbEntity
8
0
100
AcDbPolyline
90
8
70
1
43
0.0
10
188.67500000000004
20
-25.0625
42
-0.41421356237307422
10
187.67500000000001
20
-26.0625
10
183.67500000000004
20
-26.062500000000021
42
-0.41421356237307555
10
182.67500000000001
20
-25.0625
10
182.67500000000001
20
-21.86249999999999
42
-0.41421356237307422
10
183.67500000000004
20
-20.86249999999999
10
187.67500000000001
20
-20.862499999999976
42
-0.41421356237307422
10
188.67500000000004
20
-21.86249999999999
0
CIRCLE
5
170
100
AcDbEntity
8
0
100
AcDbCircle
10
18.800000000000001
20
-37.400000000000013
30
0
40
1.0000000000000011
210
0
220
0
230
1
0
LWPOLYLINE
5
171
100
AcDbEntity
8
0
100
AcDbPolyline
90
8
70
1
43
0.0
10
10.368749999999991
20
-68.499999999999972
42
0.41421356237309959
10
9.3687499999999915
20
-69.5
10
9.3687499999999986
20
-81.499999999999986
42
0.41421356237310936
10
10.368749999999991
20
-82.5
10
22.96875
20
-82.5
42
0.41421356237309764
10
23.96875
20
-81.499999999999972
10
23.96875
20
-69.500000000000014
42
0.41421356237310414
10
22.96875
20
-68.499999999999972
0
LWPOLYLINE
5
172
100
AcDbEntity
8
0
100
AcDbPolyline
90
8
70
1
43
0.0
10
337.60000000000002
20
-63.449999999999932
42
-0.414213562373069
10
336.60000000000002
20
-62.45000000000001
10
336.60000000000002
20
-50.449999999999989
42
-0.41421356237316265
10
337.60000000000002
20
-49.450000000000003
10
350.20000000000016
20
-49.450000000000017
42
-0.41421356237312362
10
351.20000000000016
20
-50.449999999999989
10
351.20000000000016
20
-62.45000000000001
42
-0.41421356237312101
10
350.20000000000016
20
-63.450000000000003
0
LWPOLYLINE
5
173
100
AcDbEntity
8
0
100
AcDbPolyline
90
8
70
1
43
0.0
10
332.15000000000003
20
-69.5
42
0.41421356237304041
10
331.15000000000003
20
-68.500000000000057
10
318.55000000000007
20
-68.499999999999972
42
0.41421356237309764
10
317.55000000000001
20
-69.5
10
317.55000000000001
20
-81.5
42
0.41421356237310542
10
318.55000000000007
20
-82.499999999999986
10
331.15000000000003
20
-82.5
42
0.414213562373069
10
332.15000000000009
20
-81.5
0
LINE
5
174
100
AcDbEntity
8
0
100
AcDbLine
10
-1.774999999999999
20
-25.462499999999991
30
0
11
-1.774999999999999
21
-25.462499999999991
31
0
0
LWPOLYLINE
5
175
100
AcDbEntity
8
0
100
AcDbPolyline
90
8
70
1
43
0.0
10
331.15000000000003
20
-63.450000000000017
42
0.41421356237307161
10
332.15000000000009
20
-62.45000000000001
10
332.15000000000003
20
-50.449999999999989
42
0.4142135623730846
10
331.15000000000003
20
-49.449999999999974
10
318.55000000000007
20
-49.449999999999996
42
0.41421356237311063
10
317.55000000000001
20
-50.449999999999989
10
317.5499999999999
20
-62.45000000000001
42
0.41421356237308721
10
318.55000000000007
20
-63.450000000000024
0
CIRCLE
5
176
100
AcDbEntity
8
0
100
AcDbCircle
10
4.90625
20
-101.55000000000001
30
0
40
0.99999999999999689
210
0
220
0
230
1
0
LWPOLYLINE
5
177
100
AcDbEntity
8
0
100
AcDbPolyline
90
8
70
1
43
0.0
10
202.25
20
-62.449999999999989
10
202.25
20
-50.45000000000001
42
-0.41421356237309503
10
203.25000000000003
20
-49.449999999999996
10
215.85000000000002
20
-49.450000000000003
42
-0.41421356237313406
10
216.85000000000002
20
-50.45000000000001
10
216.85000000000002
20
-62.449999999999989
42
-0.41421356237309243
10
215.85000000000002
20
-63.449999999999989
10
203.25000000000003
20
-63.449999999999974
42
-0.41421356237310542
0
LWPOLYLINE
5
178
100
AcDbEntity
8
0
100
AcDbPolyline
90
8
70
1
43
0.0
10
184.19999999999999
20
-63.449999999999989
10
196.80000000000004
20
-63.450000000000017
42
0.41421356237308721
10
197.80000000000001
20
-62.449999999999989
10
197.80000000000001
20
-50.449999999999989
42
0.41421356237309243
10
196.80000000000004
20
-49.450000000000074
10
184.19999999999999
20
-49.449999999999974
42
0.4142135623730846
10
183.19999999999999
20
-50.449999999999989
10
183.19999999999999
20
-62.449999999999989
42
0.41421356237310281
0
LWPOLYLINE
5
179
100
AcDbEntity
8
0
100
AcDbPolyline
90
8
70
1
43
0.0
10
287.28750000000002
20
-111.36250000000001
10
274.6875
20
-111.36250000000003
42
0.41421356237311585
10
273.6875
20
-112.3625
10
273.6875
20
-124.36250000000001
42
0.4142135623730534
10
274.6875
20
-125.36250000000001
10
287.28750000000002
20
-125.36250000000001
42
0.41421356237314183
10
288.28750000000002
20
-124.36250000000001
10
288.28750000000002
20
-112.3625
42
0.41421356237305862
0
LWPOLYLINE
5
180
100
AcDbEntity
8
0
100
AcDbPolyline
90
12
70
1
43
0.0
10
281.72500000000002
20
-30.399999999999999
42
-0.41421356237306772
10
282.72500000000002
20
-31.399999999999991
10
282.72500000000019
20
-42.144385248566024
42
-0.24603139829098533
10
282.294449643088
20
-42.966411467118206
10
280.48191317281675
20
-44.222026218552166
42
-0.15262792242065029
10
279.91246352972894
20
-44.400000000000034
10
253.48753647027121
20
-44.400000000000006
42
-0.15262792242067461
10
252.9180868271834
20
-44.222026218552188
10
251.10555035691218
20
-42.966411467118206
42
-0.24603139829095305
10
250.67500000000001
20
-42.144385248566039
10
250.67500000000001
20
-31.400000000000002
42
-0.41421356237308854
10
251.67500000000004
20
-30.400000000000009
0
LWPOLYLINE
5
181
100
AcDbEntity
8
0
100
AcDbPolyline
90
8
70
1
43
0.0
10
287.28750000000002
20
-106.31250000000001
10
274.6875
20
-106.31250000000001
42
-0.41421356237312623
10
273.6875
20
-105.3125
10
273.6875
20
-93.312499999999986
42
-0.41421356237304818
10
274.6875
20
-92.312499999999957
10
287.28750000000002
20
-92.312499999999972
42
-0.41421356237311585
10
288.28750000000002
20
-93.312499999999957
10
288.28750000000008
20
-105.3125
42
-0.41421356237305862
0
LWPOLYLINE
5
182
100
AcDbEntity
8
0
100
AcDbPolyline
90
8
70
1
43
0.0
10
241.35000000000008
20
-49.449999999999989
42
0.41421356237308721
10
240.35000000000011
20
-50.45000000000001
10
240.35000000000011
20
-62.449999999999989
42
0.41421356237311063
10
241.35000000000008
20
-63.450000000000024
10
253.94999999999999
20
-63.450000000000003
42
0.41421356237307422
10
254.95000000000002
20
-62.449999999999989
10
254.95000000000002
20
-50.449999999999989
42
0.41421356237307422
10
253.94999999999999
20
-49.449999999999974
0
LWPOLYLINE
5
183
100
AcDbEntity
8
0
100
AcDbPolyline
90
8
70
1
43
0.0
10
277.76249999999999
20
-49.449999999999974
10
265.16250000000014
20
-49.449999999999996
42
0.41421356237308982
10
264.16250000000008
20
-50.449999999999989
10
264.16250000000008
20
-62.449999999999989
42
0.41421356237312362
10
265.16250000000008
20
-63.450000000000024
10
277.76249999999999
20
-63.450000000000017
42
0.41421356237308721
10
278.76249999999999
20
-62.449999999999989
10
278.76250000000016
20
-50.45000000000001
42
0.41421356237312362
0
LWPOLYLINE
5
184
100
AcDbEntity
8
0
100
AcDbPolyline
90
8
70
1
43
0.0
10
235.90000000000006
20
-50.45000000000001
42
0.41421356237310542
10
234.90000000000003
20
-49.450000000000003
10
222.30000000000004
20
-49.450000000000017
42
0.41421356237310802
10
221.30000000000001
20
-50.45000000000001
10
221.30000000000001
20
-62.449999999999989
42
0.41421356237312362
10
222.30000000000004
20
-63.450000000000024
10
234.90000000000003
20
-63.449999999999996
42
0.41421356237309243
10
235.90000000000003
20
-62.449999999999989
0
LWPOLYLINE
5
185
100
AcDbEntity
8
0
100
AcDbPolyline
90
8
70
1
43
0.0
10
245.42500000000004
20
-43.399999999999991
10
245.42500000000004
20
-31.400000000000002
42
0.41421356237311974
10
244.42500000000001
20
-30.39999999999997
10
231.82500000000002
20
-30.400000000000009
42
0.41421356237311974
10
230.8250000000001
20
-31.400000000000002
10
230.82499999999999
20
-43.399999999999991
42
0.41421356237307422
10
231.82500000000002
20
-44.400000000000013
10
244.42500000000001
20
-44.400000000000006
42
0.41421356237309503
0
LWPOLYLINE
5
186
100
AcDbEntity
8
0
100
AcDbPolyline
90
8
70
1
43
0.0
10
199.18125000000003
20
-120.60000000000001
10
186.58125000000001
20
-120.60000000000002
42
-0.41421356237309503
10
185.58125000000001
20
-119.60000000000001
10
185.58125000000001
20
-107.59999999999999
42
-0.414213562373069
10
186.58125000000001
20
-106.59999999999999
10
199.18125000000003
20
-106.60000000000002
42
-0.41421356237311585
10
200.18125000000001
20
-107.59999999999999
10
200.18125000000003
20
-119.60000000000001
42
-0.4142135623730534
0
CIRCLE
5
187
100
AcDbEntity
8
0
100
AcDbCircle
10
283.22500000000014
20
-44.399999999999984
30
0
40
1
210
0
220
0
230
1
0
LWPOLYLINE
5
188
100
AcDbEntity
8
0
100
AcDbPolyline
90
8
70
1
43
0.0
10
207.01250000000002
20
-107.59999999999999
42
-0.41421356237312101
10
208.01249999999999
20
-106.59999999999999
10
220.61250000000001
20
-106.59999999999999
42
-0.41421356237308982
10
221.61250000000001
20
-107.59999999999999
10
221.61250000000001
20
-119.60000000000001
42
-0.41421356237310542
10
220.61250000000001
20
-120.60000000000001
10
208.01249999999999
20
-120.60000000000002
42
-0.41421356237310542
10
207.01250000000002
20
-119.60000000000001
0
CIRCLE
5
189
100
AcDbEntity
8
0
100
AcDbCircle
10
226.11250000000001
20
-113.59999999999999
30
0
40
1.0000000000000029
210
0
220
0
230
1
0
LWPOLYLINE
5
190
100
AcDbEntity
8
0
100
AcDbPolyline
90
8
70
1
43
0.0
10
228.44374999999999
20
-119.60000000000001
10
228.44374999999999
20
-107.59999999999999
42
-0.41421356237308982
10
229.44375000000002
20
-106.59999999999999
10
242.04374999999999
20
-106.59999999999999
42
-0.41421356237308982
10
243.04374999999999
20
-107.59999999999999
10
243.04374999999999
20
-119.60000000000001
42
-0.41421356237311585
10
242.04374999999999
20
-120.60000000000001
10
229.44375000000002
20
-120.60000000000002
42
-0.41421356237311585
0
LWPOLYLINE
5
191
100
AcDbEntity
8
0
100
AcDbPolyline
90
8
70
1
43
0.0
10
217.53750000000002
20
-101.55000000000003
42
-0.41421356237311063
10
216.53750000000002
20
-100.55
10
216.53750000000002
20
-88.550000000000026
42
-0.41421356237308982
10
217.53749999999999
20
-87.549999999999983
10
230.1375000000001
20
-87.549999999999983
42
-0.41421356237311063
10
231.13749999999999
20
-88.550000000000026
10
231.13750000000005
20
-100.55
42
-0.41421356237305862
10
230.13750000000002
20
-101.55000000000001
0
LWPOLYLINE
5
192
100
AcDbEntity
8
0
100
AcDbPolyline
90
8
70
1
43
0.0
10
197.48750000000001
20
-88.550000000000026
10
197.48750000000001
20
-100.55
42
0.41421356237310025
10
198.48750000000001
20
-101.55000000000001
10
211.08750000000001
20
-101.55000000000003
42
0.41421356237310025
10
212.08750000000003
20
-100.55
10
212.08750000000003
20
-88.550000000000026
42
0.41421356237307944
10
211.08750000000001
20
-87.549999999999983
10
198.48750000000001
20
-87.549999999999969
42
0.41421356237312623
0
CIRCLE
5
193
100
AcDbEntity
8
0
100
AcDbCircle
10
271.46249999999998
20
-118.3625
30
0
40
0.99999999999999689
210
0
220
0
230
1
0
LWPOLYLINE
5
194
100
AcDbEntity
8
0
100
AcDbPolyline
90
8
70
1
43
0.0
10
254.63750000000002
20
-112.3625
10
254.63749999999999
20
-124.36250000000001
42
0.4142135623730534
10
255.63749999999999
20
-125.36250000000001
10
268.23750000000007
20
-125.36250000000001
42
0.41421356237314183
10
269.23750000000001
20
-124.36250000000001
10
269.23750000000001
20
-112.3625
42
0.41421356237308982
10
268.23750000000007
20
-111.36250000000001
10
255.63749999999999
20
-111.36250000000003
42
0.41421356237311585
0
LWPOLYLINE
5
195
100
AcDbEntity
8
0
100
AcDbPolyline
90
8
70
1
43
0.0
10
350.20000000000016
20
-16.524999999999991
10
337.60000000000019
20
-16.525000000000134
42
-0.41421356237309115
10
336.60000000000002
20
-15.524999999999991
10
336.60000000000014
20
-3.5249999999999981
42
-0.41421356237314272
10
337.60000000000002
20
-2.524999999999999
10
350.20000000000016
20
-2.5250000000000257
42
-0.41421356237312479
10
351.20000000000016
20
-3.5249999999999981
10
351.20000000000027
20
-15.524999999999991
42
-0.41421356237312101
0
CIRCLE
5
196
100
AcDbEntity
8
0
100
AcDbCircle
10
147.63749999999999
20
-75.5
30
0
40
0.99999999999999689
210
0
220
0
230
1
0
LWPOLYLINE
5
197
100
AcDbEntity
8
0
100
AcDbPolyline
90
8
70
1
43
0.0
10
173.98750000000007
20
-88.550000000000026
42
0.41421356237313667
10
172.98749999999995
20
-87.549999999999969
10
160.38749999999999
20
-87.550000000000011
42
0.41421356237311585
10
159.38749999999999
20
-88.550000000000026
10
159.38749999999999
20
-100.55
42
0.41421356237311585
10
160.38749999999999
20
-101.55000000000001
10
172.9874999999999
20
-101.55000000000003
42
0.41421356237307944
10
173.98750000000004
20
-100.55
0
LWPOLYLINE
5
198
100
AcDbEntity
8
0
100
AcDbPolyline
90
8
70
1
43
0.0
10
356.50000000000023
20
-26.462500000000013
42
0.41421356237311063
10
357.00000000000017
20
-25.962500000000013
10
357.00000000000017
20
-20.962500000000013
42
0.41421356237311324
10
356.50000000000023
20
-20.462500000000034
10
347.5
20
-20.462499999999977
42
0.41421356237313145
10
347.00000000000017
20
-20.962500000000013
10
347.00000000000011
20
-25.962500000000013
42
0.41421356237305862
10
347.5
20
-26.462499999999984
0
LWPOLYLINE
5
199
100
AcDbEntity
8
0
100
AcDbPolyline
90
8
70
1
43
0.0
10
211.77500000000003
20
-43.399999999999991
10
211.77500000000003
20
-31.400000000000002
42
-0.41421356237309115
10
212.77500000000003
20
-30.399999999999999
10
225.375
20
-30.400000000000013
42
-0.41421356237310802
10
226.37500000000003
20
-31.400000000000002
10
226.37500000000003
20
-43.399999999999991
42
-0.41421356237310802
10
225.375
20
-44.399999999999991
10
212.77500000000003
20
-44.400000000000006
42
-0.41421356237309503
0
LWPOLYLINE
5
200
100
AcDbEntity
8
0
100
AcDbPolyline
90
8
70
1
43
0.0
10
313.10000000000014
20
-69.5
10
313.10000000000014
20
-81.5
42
-0.41421356237308982
10
312.10000000000014
20
-82.5
10
299.5
20
-82.500000000000014
42
-0.41421356237309503
10
298.5
20
-81.5
10
298.5
20
-69.5
42
-0.41421356237309503
10
299.5
20
-68.499999999999986
10
312.10000000000014
20
-68.500000000000014
42
-0.41421356237310802
0
LWPOLYLINE
5
201
100
AcDbEntity
8
0
100
AcDbPolyline
90
8
70
1
43
0.0
10
356.64999999999998
20
-44.399999999999935
10
369.25000000000006
20
-44.399999999999963
42
0.41421356237312362
10
370.25000000000023
20
-43.399999999999991
10
370.25000000000006
20
-31.399999999999991
42
0.4142135623730378
10
369.25000000000006
20
-30.400000000000041
10
356.65000000000009
20
-30.400000000000013
42
0.41421356237312623
10
355.64999999999998
20
-31.399999999999991
10
355.6500000000002
20
-43.399999999999991
42
0.41421356237309503
0
LWPOLYLINE
5
202
100
AcDbEntity
8
0
100
AcDbPolyline
90
8
70
1
43
0.0
10
350.2000000000001
20
-44.39999999999997
42
0.41421356237312623
10
351.20000000000016
20
-43.399999999999991
10
351.20000000000016
20
-31.399999999999991
42
0.4142135623730131
10
350.20000000000016
20
-30.39999999999997
10
337.60000000000002
20
-30.399999999999949
42
0.41421356237310414
10
336.60000000000002
20
-31.399999999999991
10
336.60000000000002
20
-43.399999999999991
42
0.41421356237315748
10
337.60000000000002
20
-44.399999999999935
0
LWPOLYLINE
5
203
100
AcDbEntity
8
0
100
AcDbPolyline
90
8
70
1
43
0.0
10
207.32500000000002
20
-31.400000000000002
42
0.41421356237311974
10
206.32499999999999
20
-30.39999999999997
10
193.72500000000002
20
-30.400000000000013
42
0.41421356237310802
10
192.72500000000002
20
-31.400000000000002
10
192.72500000000002
20
-43.399999999999991
42
0.41421356237309503
10
193.72500000000002
20
-44.400000000000013
10
206.32499999999999
20
-44.399999999999977
42
0.41421356237310802
10
207.32500000000002
20
-43.399999999999991
0
LWPOLYLINE
5
204
100
AcDbEntity
8
0
100
AcDbPolyline
90
8
70
1
43
0.0
10
317.55000000000001
20
-31.399999999999991
42
-0.41421356237309115
10
318.55000000000007
20
-30.399999999999991
10
331.14999999999998
20
-30.400000000000013
42
-0.41421356237312623
10
332.15000000000003
20
-31.399999999999991
10
332.15000000000009
20
-43.399999999999991
42
-0.41421356237310281
10
331.15000000000003
20
-44.399999999999984
10
318.55000000000007
20
-44.400000000000006
42
-0.41421356237309503
10
317.55000000000001
20
-43.399999999999991
0
LWPOLYLINE
5
205
100
AcDbEntity
8
0
100
AcDbPolyline
90
8
70
1
43
0.0
10
312.10000000000014
20
-63.449999999999989
10
299.5
20
-63.450000000000017
42
-0.41421356237309243
10
298.5
20
-62.45000000000001
10
298.5
20
-50.449999999999989
42
-0.41421356237308721
10
299.5
20
-49.450000000000003
10
312.10000000000014
20
-49.450000000000017
42
-0.41421356237310802
10
313.10000000000014
20
-50.45000000000001
10
313.10000000000002
20
-62.45000000000001
42
-0.41421356237312101
0
LWPOLYLINE
5
206
100
AcDbEntity
8
0
100
AcDbPolyline
90
8
70
1
43
0.0
10
369.25000000000006
20
-2.5250000000000328
42
-0.41421356237312268
10
370.25000000000023
20
-3.5249999999999981
10
370.25000000000023
20
-15.524999999999991
42
-0.41421356237316459
10
369.25000000000006
20
-16.524999999999991
10
356.6500000000002
20
-16.525000000000034
42
-0.41421356237310025
10
355.6500000000002
20
-15.525000000000002
10
355.65000000000026
20
-3.5249999999999981
42
-0.41421356237314366
10
356.6500000000002
20
-2.524999999999999
0
LWPOLYLINE
5
207
100
AcDbEntity
8
0
100
AcDbPolyline
90
8
70
1
43
0.0
10
145.09999999999997
20
-62.449999999999989
42
0.41421356237311585
10
146.09999999999999
20
-63.450000000000003
10
158.69999999999999
20
-63.450000000000003
42
0.41421356237308982
10
159.69999999999999
20
-62.449999999999989
10
159.69999999999999
20
-50.45000000000001
42
0.41421356237309243
10
158.69999999999999
20
-49.449999999999996
10
146.09999999999999
20
-49.449999999999996
42
0.41421356237308982
10
145.09999999999999
20
-50.45000000000001
0
LWPOLYLINE
5
208
100
AcDbEntity
8
0
100
AcDbPolyline
90
8
70
1
43
0.0
10
337.26346195809504
20
-21.3125
10
337.26346195809515
20
-25.612500000000011
42
0.41421356237314966
10
337.76346195809515
20
-26.11250000000004
10
343.06346195809505
20
-26.112500000000061
42
0.41421356237314183
10
343.56346195809488
20
-25.612500000000011
10
343.56346195809488
20
-21.3125
42
0.41421356237314705
10
343.06346195809505
20
-20.812499999999968
10
337.76346195809515
20
-20.812500000000011
42
0.41421356237318868
0
LWPOLYLINE
5
209
100
AcDbEntity
8
0
100
AcDbPolyline
90
8
70
1
43
0.0
10
117.52500000000001
20
-120.60000000000001
10
130.12500000000003
20
-120.60000000000001
42
0.41421356237310542
10
131.125
20
-119.60000000000001
10
131.125
20
-107.59999999999999
42
0.41421356237309503
10
130.125
20
-106.59999999999999
10
117.52500000000001
20
-106.59999999999999
42
0.41421356237309503
10
116.52500000000002
20
-107.59999999999999
10
116.52500000000002
20
-119.60000000000001
42
0.41421356237309503
0
LWPOLYLINE
5
210
100
AcDbEntity
8
0
100
AcDbPolyline
90
8
70
1
43
0.0
10
298.5
20
-88.549999999999983
42
-0.41421356237313145
10
299.5
20
-87.549999999999983
10
312.10000000000014
20
-87.549999999999983
42
-0.41421356237311063
10
313.10000000000008
20
-88.550000000000026
10
313.10000000000002
20
-100.55
42
-0.41421356237311063
10
312.10000000000014
20
-101.55000000000001
10
299.5
20
-101.55000000000003
42
-0.41421356237310025
10
298.5
20
-100.55
0
CIRCLE
5
211
100
AcDbEntity
8
0
100
AcDbCircle
10
200.02500000000001
20
-56.449999999999996
30
0
40
0.99999999999999689
210
0
220
0
230
1
0
CIRCLE
5
212
100
AcDbEntity
8
0
100
AcDbCircle
10
228.59999999999999
20
-37.400000000000013
30
0
40
1.0000000000000011
210
0
220
0
230
1
0
LWPOLYLINE
5
213
100
AcDbEntity
8
0
100
AcDbPolyline
90
8
70
1
43
0.0
10
164.15000000000003
20
-62.449999999999989
42
0.41421356237305601
10
165.15000000000001
20
-63.449999999999989
10
177.75000000000003
20
-63.449999999999982
42
0.41421356237311846
10
178.74999999999994
20
-62.449999999999989
10
178.75
20
-50.45000000000001
42
0.41421356237308982
10
177.75000000000003
20
-49.449999999999974
10
165.15000000000001
20
-49.45000000000001
42
0.41421356237312101
10
164.15000000000003
20
-50.45000000000001
0
CIRCLE
5
214
100
AcDbEntity
8
0
100
AcDbCircle
10
180.97499999999999
20
-9.5250000000000021
30
0
40
1.0000000000000011
210
0
220
0
230
1
0
CIRCLE
5
215
100
AcDbEntity
8
0
100
AcDbCircle
10
52.387500000000003
20
-75.5
30
0
40
0.99999999999999689
210
0
220
0
230
1
0
LWPOLYLINE
5
216
100
AcDbEntity
8
0
100
AcDbPolyline
90
8
70
1
43
0.0
10
230.82500000000007
20
-3.5250000000000004
42
-0.41421356237307311
10
231.82500000000002
20
-2.524999999999999
10
244.42500000000001
20
-2.5249999999999924
42
-0.41421356237313456
10
245.42500000000004
20
-3.5250000000000004
10
245.42500000000007
20
-15.525000000000002
42
-0.4142135623731022
10
244.42500000000001
20
-16.524999999999991
10
231.82500000000002
20
-16.525000000000002
42
-0.41421356237307355
10
230.82499999999999
20
-15.524999999999991
0
CIRCLE
5
217
100
AcDbEntity
8
0
100
AcDbCircle
10
315.32500000000005
20
-75.5
30
0
40
0.99999999999999689
210
0
220
0
230
1
0
CIRCLE
5
218
100
AcDbEntity
8
0
100
AcDbCircle
10
352.92499999999995
20
-9.5250000000000021
30
0
40
1.0000000000000011
210
0
220
0
230
1
0
CIRCLE
5
219
100
AcDbEntity
8
0
100
AcDbCircle
10
102.22499999999999
20
-113.40181458487803
30
0
40
0.99999999999999045
210
0
220
0
230
1
0
CIRCLE
5
220
100
AcDbEntity
8
0
100
AcDbCircle
10
291.00305375835421
20
-9.4249965244465876
30
0
40
0.99999999999999822
210
0
220
0
230
1
0
CIRCLE
5
221
100
AcDbEntity
8
0
100
AcDbCircle
10
228.59999999999999
20
-9.5250000000000021
30
0
40
1.0000000000000011
210
0
220
0
230
1
0
CIRCLE
5
222
100
AcDbEntity
8
0
100
AcDbCircle
10
95.25
20
-9.5250000000000021
30
0
40
1.0000000000000011
210
0
220
0
230
1
0
LWPOLYLINE
5
223
100
AcDbEntity
8
0
100
AcDbPolyline
90
4
70
1
43
0.0
10
82.864172356491025
20
-120.4500841730036
10
82.864172356491025
20
-106.75008417300361
10
69.164172356491008
20
-106.7500841730035
10
69.154395686503449
20
-120.4500841730036
0
LWPOLYLINE
5
224
100
AcDbEntity
8
0
100
AcDbPolyline
90
5
70
1
43
0.0
10
164.78582764350901
20
-107.02223498265954
10
164.78582764350901
20
-120.4500841730036
10
178.48001997479739
20
-120.45008417300366
10
178.48004621329568
20
-106.75011040047931
10
164.78582764350901
20
-106.7500841730035
0
LWPOLYLINE
5
225
100
AcDbEntity
8
0
100
AcDbPolyline
90
8
70
1
43
0.0
10
293.73750000000001
20
-111.36250000000003
42
0.41421356237311585
10
292.73750000000001
20
-112.3625
10
292.73750000000001
20
-124.36250000000001
42
0.4142135623730534
10
293.73750000000001
20
-125.36250000000001
10
306.33750000000009
20
-125.36250000000003
42
0.41421356237309503
10
307.33750000000009
20
-124.36250000000001
10
307.33750000000009
20
-112.3625
42
0.41421356237313145
10
306.33750000000009
20
-111.36250000000001
0
LWPOLYLINE
5
226
100
AcDbEntity
8
0
100
AcDbPolyline
90
8
70
1
43
0.0
10
62.068750000000009
20
-119.60000000000001
10
62.068750000000009
20
-107.60000000000002
42
0.41421356237310281
10
61.068750000000023
20
-106.59999999999999
10
48.468750000000007
20
-106.59999999999999
42
0.41421356237309503
10
47.468750000000014
20
-107.59999999999999
10
47.468749999999993
20
-119.60000000000001
42
0.41421356237308982
10
48.468750000000007
20
-120.60000000000001
10
61.068750000000023
20
-120.59999999999999
42
0.41421356237310542
0
LWPOLYLINE
5
227
100
AcDbEntity
8
0
100
AcDbPolyline
90
8
70
1
43
0.0
10
264.47500000000008
20
-3.5250000000000004
10
264.47500000000008
20
-15.525000000000002
42
-0.41421356237310153
10
263.47500000000002
20
-16.524999999999999
10
250.87500000000009
20
-16.52500000000002
42
-0.41421356237308854
10
249.87500000000011
20
-15.524999999999991
10
249.875
20
-3.5249999999999981
42
-0.41421356237313178
10
250.87500000000003
20
-2.524999999999999
10
263.47500000000002
20
-2.5250000000000039
42
-0.41421356237309992
0
CIRCLE
5
228
100
AcDbEntity
8
0
100
AcDbCircle
10
152.40000000000003
20
-37.400000000000013
30
0
40
1.0000000000000011
210
0
220
0
230
1
0
CIRCLE
5
229
100
AcDbEntity
8
0
100
AcDbCircle
10
80.962500000000034
20
-94.549999999999997
30
0
40
0.99999999999999689
210
0
220
0
230
1
0
LWPOLYLINE
5
230
100
AcDbEntity
8
0
100
AcDbPolyline
90
8
70
1
43
0.0
10
282.52500000000009
20
-2.5250000000000044
42
-0.41421356237312024
10
283.52500000000009
20
-3.5249999999999981
10
283.52500000000009
20
-15.524999999999991
42
-0.41421356237305668
10
282.52500000000009
20
-16.524999999999991
10
269.92500000000007
20
-16.524999999999995
42
-0.4142135623731204
10
268.92500000000007
20
-15.525000000000002
10
268.92500000000007
20
-3.5249999999999981
42
-0.41421356237305718
10
269.92500000000007
20
-2.524999999999999
0
CIRCLE
5
231
100
AcDbEntity
8
0
100
AcDbCircle
10
309.38532258507422
20
-106.86250000000001
30
0
40
0.99999999999999778
210
0
220
0
230
1
0
CIRCLE
5
232
100
AcDbEntity
8
0
100
AcDbCircle
10
144.63499405006434
20
-113.3797262462874
30
0
40
0.99999999999999778
210
0
220
0
230
1
0
CIRCLE
5
233
100
AcDbEntity
8
0
100
AcDbCircle
10
315.32500000000005
20
-37.400000000000013
30
0
40
1.0000000000000011
210
0
220
0
230
1
0
CIRCLE
5
234
100
AcDbEntity
8
0
100
AcDbCircle
10
353.42499999999995
20
-37.400000000000013
30
0
40
1.0000000000000011
210
0
220
0
230
1
0
LWPOLYLINE
5
235
100
AcDbEntity
8
0
100
AcDbPolyline
90
8
70
1
43
0.0
10
221.61250000000001
20
-69.5
10
221.61250000000001
20
-81.499999999999972
42
-0.41421356237307944
10
220.61250000000001
20
-82.5
10
208.01249999999996
20
-82.5
42
-0.41421356237307944
10
207.01250000000002
20
-81.499999999999972
10
207.01250000000005
20
-69.5
42
-0.41421356237309503
10
208.01249999999999
20
-68.499999999999986
10
220.61250000000001
20
-68.5
42
-0.41421356237313406
0
CIRCLE
5
236
100
AcDbEntity
8
0
100
AcDbCircle
10
195.26250000000002
20
-94.549999999999997
30
0
40
0.99999999999999689
210
0
220
0
230
1
0
LWPOLYLINE
5
237
100
AcDbEntity
8
0
100
AcDbPolyline
90
8
70
1
43
0.0
10
242.73125000000007
20
-100.55
42
0.41421356237310025
10
243.7312500000001
20
-101.55000000000001
10
256.33125000000001
20
-101.55000000000003
42
0.41421356237308982
10
257.33125000000001
20
-100.55
10
257.33125000000007
20
-88.550000000000026
42
0.41421356237312623
10
256.33125000000007
20
-87.549999999999983
10
243.7312500000001
20
-87.549999999999969
42
0.41421356237312623
10
242.73125000000007
20
-88.550000000000026
0
LWPOLYLINE
5
238
100
AcDbEntity
8
0
100
AcDbPolyline
90
12
70
1
43
0.0
10
251.10628647027127
20
-82.5
10
277.53121352972892
20
-82.5
42
0.15262792242067713
10
278.10066317281672
20
-82.322026218552168
10
279.91319964308792
20
-81.066411467118215
42
0.24603139829096313
10
280.34375000000006
20
-80.244385248566047
10
280.34375000000006
20
-69.499999999999972
42
0.414213562373069
10
279.34375000000006
20
-68.499999999999972
10
249.29374999999999
20
-68.5
42
0.41421356237308721
10
248.29374999999999
20
-69.5
10
248.29374999999999
20
-80.244385248566033
42
0.24603139829099308
10
248.72430035691221
20
-81.066411467118215
10
250.53683682718346
20
-82.322026218552168
42
0.15262792242067713
0
LWPOLYLINE
5
239
100
AcDbEntity
8
0
100
AcDbPolyline
90
8
70
1
43
0.0
10
227.0625
20
-68.499999999999957
42
0.41421356237309503
10
226.06250000000003
20
-69.5
10
226.06250000000006
20
-81.499999999999986
42
0.41421356237311063
10
227.06250000000011
20
-82.500000000000014
10
239.66250000000002
20
-82.5
42
0.41421356237312623
10
240.66249999999999
20
-81.499999999999986
10
240.66250000000011
20
-69.5
42
0.41421356237309243
10
239.66250000000002
20
-68.5
0
CIRCLE
5
240
100
AcDbEntity
8
0
100
AcDbCircle
10
265.72806077019567
20
-88.350770130063708
30
0
40
1.0000000000000029
210
0
220
0
230
1
0
CIRCLE
5
241
100
AcDbEntity
8
0
100
AcDbCircle
10
247.79375000000002
20
-82.5
30
0
40
1
210
0
220
0
230
1
0
ENDSEC
0
SECTION
2
OBJECTS
0
DICTIONARY
5
C
100
AcDbDictionary
3
ACAD_GROUP
350
D
3
ACAD_MLINESTYLE
350
17
0
DICTIONARY
5
D
100
AcDbDictionary
0
DICTIONARY
5
1A
330
C
100
AcDbDictionary
0
DICTIONARY
5
17
100
AcDbDictionary
0
ENDSEC
0
EOF
